<?xml version="1.0" encoding="utf-8"?>
<!-- Generator: Adobe Illustrator 15.0.2, SVG Export Plug-In . SVG Version: 6.00 Build 0)  -->
<!DOCTYPE svg PUBLIC "-//W3C//DTD SVG 1.1//EN" "http://www.w3.org/Graphics/SVG/1.1/DTD/svg11.dtd">
<svg version="1.1" id="Layer_1" xmlns="http://www.w3.org/2000/svg" xmlns:xlink="http://www.w3.org/1999/xlink" x="0px" y="0px"
	 width="43.293px" height="43.293px" viewBox="0 0 43.293 43.293" enable-background="new 0 0 43.293 43.293" xml:space="preserve">
<path fill="#4D4D4D" d="M10.801,2.908C14.125,0.972,17.739,0,21.646,0s7.522,0.972,10.845,2.908
	c3.323,1.939,5.954,4.572,7.894,7.894c1.938,3.325,2.908,6.939,2.908,10.845c0,3.909-0.971,7.521-2.908,10.845
	c-1.94,3.325-4.571,5.955-7.894,7.894c-3.323,1.939-6.938,2.908-10.845,2.908s-7.521-0.969-10.845-2.908
	c-3.323-1.939-5.956-4.569-7.894-7.894C0.968,29.168,0,25.555,0,21.646c0-3.905,0.968-7.52,2.908-10.845
	C4.846,7.48,7.478,4.848,10.801,2.908z M8.439,34.854c3.644,3.644,8.048,5.466,13.207,5.466c5.16,0,9.562-1.822,13.206-5.466
	s5.466-8.048,5.466-13.207c0-5.16-1.822-9.562-5.466-13.206s-8.046-5.466-13.206-5.466c-5.159,0-9.563,1.822-13.207,5.466
	s-5.466,8.046-5.466,13.206C2.973,26.806,4.795,31.209,8.439,34.854z M21.646,9.71c0.379,0,0.7,0.131,0.963,0.392
	c0.261,0.263,0.394,0.627,0.394,1.095v10.45c0,0.38-0.162,0.729-0.482,1.051l-9.095,8.963c-0.292,0.292-0.642,0.438-1.05,0.438
	s-0.758-0.147-1.05-0.438s-0.437-0.642-0.437-1.05c0-0.408,0.145-0.758,0.437-1.05l8.834-8.659v-9.706
	c0-0.439,0.138-0.794,0.415-1.073C20.852,9.848,21.209,9.71,21.646,9.71z"/>
</svg>
