<?xml version="1.0" encoding="utf-8"?>
<!-- Generator: Adobe Illustrator 15.0.2, SVG Export Plug-In . SVG Version: 6.00 Build 0)  -->
<!DOCTYPE svg PUBLIC "-//W3C//DTD SVG 1.1//EN" "http://www.w3.org/Graphics/SVG/1.1/DTD/svg11.dtd">
<svg version="1.1" id="Layer_1" xmlns="http://www.w3.org/2000/svg" xmlns:xlink="http://www.w3.org/1999/xlink" x="0px" y="0px"
	 width="34px" height="26px" viewBox="0 0 34 26" enable-background="new 0 0 34 26" xml:space="preserve">
<g>
	<path fill="#4D4D4D" d="M31.709,26H2.291C1.028,26,0,24.972,0,23.709V2.291C0,1.028,1.028,0,2.291,0H31.71
		C32.973,0,34,1.028,34,2.291v21.418C34,24.972,32.972,26,31.709,26z M2.291,2C2.13,2,2,2.13,2,2.291v21.418
		C2,23.87,2.13,24,2.291,24h29.418C31.87,24,32,23.87,32,23.709V2.291C32,2.13,31.87,2,31.71,2H2.291z"/>
</g>
<g>
	<g>
		<g>
			<path fill="#4D4D4D" d="M13.903,18.358c-1.638-1.278-3.257-2.572-4.866-3.887c0,0.354,0,0.707,0,1.061
				c1.622-1.307,3.244-2.613,4.866-3.919c0.753-0.607-0.315-1.661-1.061-1.061c-1.622,1.306-3.244,2.613-4.866,3.919
				c-0.297,0.239-0.293,0.821,0,1.061c1.608,1.315,3.228,2.608,4.866,3.887C13.595,20.006,14.665,18.953,13.903,18.358
				L13.903,18.358z"/>
		</g>
	</g>
</g>
<g>
	<g>
		<g>
			<path fill="#4D4D4D" d="M19.854,11.612c1.639,1.279,3.26,2.572,4.87,3.887c0-0.354,0-0.707,0-1.061
				c-1.623,1.307-3.247,2.613-4.87,3.919c-0.754,0.606,0.315,1.661,1.061,1.061c1.623-1.306,3.247-2.613,4.87-3.919
				c0.297-0.239,0.293-0.821,0-1.061c-1.61-1.314-3.231-2.608-4.87-3.887C20.162,9.964,19.092,11.018,19.854,11.612L19.854,11.612z"
				/>
		</g>
	</g>
</g>
<g>
	<g>
		<g>
			<path fill="#4D4D4D" d="M16.405,20.362c0.798-3.426,1.595-6.853,2.393-10.279c0.219-0.941-1.227-1.34-1.446-0.398
				c-0.798,3.426-1.595,6.853-2.393,10.279C14.74,20.904,16.186,21.304,16.405,20.362L16.405,20.362z"/>
		</g>
	</g>
</g>
<g>
	<rect y="2" fill="#4D4D4D" width="34" height="3"/>
</g>
</svg>
