<?xml version="1.0" encoding="utf-8"?>
<!-- Generator: Adobe Illustrator 15.0.2, SVG Export Plug-In . SVG Version: 6.00 Build 0)  -->
<!DOCTYPE svg PUBLIC "-//W3C//DTD SVG 1.1//EN" "http://www.w3.org/Graphics/SVG/1.1/DTD/svg11.dtd">
<svg version="1.1" id="Layer_1" xmlns="http://www.w3.org/2000/svg" xmlns:xlink="http://www.w3.org/1999/xlink" x="0px" y="0px"
	 width="10.716px" height="48.669px" viewBox="23 8 10.716 48.669" enable-background="new 23 8 10.716 48.669"
	 xml:space="preserve">
<path d="M24.572,9.572C25.622,8.525,26.883,8,28.358,8c1.474,0,2.735,0.525,3.785,1.572c1.05,1.05,1.573,2.312,1.573,3.786
	c0,1.508-0.523,2.785-1.573,3.834c-1.049,1.05-2.311,1.574-3.785,1.574c-1.475,0-2.736-0.524-3.786-1.574
	C23.523,16.143,23,14.866,23,13.358C23,11.883,23.523,10.622,24.572,9.572z M24.572,28.549c1.049-1.05,2.311-1.573,3.786-1.573
	c1.474,0,2.735,0.523,3.785,1.573c1.05,1.05,1.573,2.311,1.573,3.785c0,1.476-0.523,2.736-1.573,3.786
	c-1.049,1.049-2.311,1.574-3.785,1.574c-1.475,0-2.736-0.524-3.786-1.574C23.523,35.07,23,33.811,23,32.334
	C23,30.86,23.523,29.599,24.572,28.549z M24.572,47.477c1.049-1.049,2.311-1.574,3.786-1.574c1.474,0,2.735,0.525,3.785,1.574
	c1.05,1.049,1.573,2.328,1.573,3.834c0,1.475-0.523,2.736-1.573,3.787c-1.049,1.049-2.311,1.571-3.785,1.571
	c-1.475,0-2.736-0.522-3.786-1.571C23.523,54.047,23,52.785,23,51.313C23,49.805,23.523,48.525,24.572,47.477z"/>
</svg>
