<?xml version="1.0" encoding="UTF-8" standalone="no"?>
<svg xmlns:dc="http://purl.org/dc/elements/1.1/" xmlns:cc="http://creativecommons.org/ns#" xmlns:rdf="http://www.w3.org/1999/02/22-rdf-syntax-ns#" xmlns:svg="http://www.w3.org/2000/svg" xmlns="http://www.w3.org/2000/svg" xmlns:sodipodi="http://sodipodi.sourceforge.net/DTD/sodipodi-0.dtd" xmlns:inkscape="http://www.inkscape.org/namespaces/inkscape" viewBox="0 -256 1792 1792" id="svg3001" version="1.1" inkscape:version="0.48.3.1 r9886" width="100%" height="100%" sodipodi:docname="question_sign_font_awesome.svg">
  <metadata id="metadata3011">
    <rdf:RDF>
      <cc:Work rdf:about="">
        <dc:format>image/svg+xml</dc:format>
        <dc:type rdf:resource="http://purl.org/dc/dcmitype/StillImage"/>
      </cc:Work>
    </rdf:RDF>
  </metadata>
  <defs id="defs3009"/>
  <sodipodi:namedview pagecolor="#ffffff" bordercolor="#008000" borderopacity="1" objecttolerance="10" gridtolerance="10" guidetolerance="10" inkscape:pageopacity="0" inkscape:pageshadow="2" inkscape:window-width="640" inkscape:window-height="480" id="namedview3007" showgrid="false" inkscape:zoom="0.13169643" inkscape:cx="896" inkscape:cy="896" inkscape:window-x="0" inkscape:window-y="25" inkscape:window-maximized="0" inkscape:current-layer="svg3001"/>
  <g transform="matrix(1,0,0,-1,121.49153,1262.6441)" id="g3003">
    <path d="m 896,160 v 192 q 0,13 -9.5,22.5 Q 877,384 864,384 H 672 q -13,0 -22.5,-9.5 Q 640,365 640,352 V 160 q 0,-13 9.5,-22.5 Q 659,128 672,128 h 192 q 13,0 22.5,9.5 9.5,9.5 9.5,22.5 z m 256,672 q 0,97 -58.5,172 -58.5,75 -144.5,111.5 -86,36.5 -181,36.5 -95,0 -181,-36.5 Q 501,1079 442.5,1004 384,929 384,832 v -11 -13 q 0,0 1,-11.5 1,-11.5 3,-11.5 2,0 5.5,-8 3.5,-8 9,-7 5.5,1 13.5,-2 h 192 q 14,0 23,9 9,9 9,23 0,12 11,27 19,31 50.5,50 31.5,19 66.5,19 39,0 83,-21.5 Q 895,853 895,817 895,784 868.5,759 842,734 805,715 768,696 730.5,673.5 693,651 666.5,610 640,569 640,512 v -11 -13 q 0,0 1,-11.5 1,-11.5 3,-11.5 2,0 5.5,-8 3.5,-8 9,-7 5.5,1 13.5,-2 h 192 q 17,0 24,10.5 7,10.5 8,24.5 1,14 13.5,33 12.5,19 37.5,32 60,33 70,39 62,44 98.5,108 36.5,64 36.5,137 z M 1536,640 Q 1536,431 1433,254.5 1330,78 1153.5,-25 977,-128 768,-128 559,-128 382.5,-25 206,78 103,254.5 0,431 0,640 0,849 103,1025.5 206,1202 382.5,1305 559,1408 768,1408 977,1408 1153.5,1305 1330,1202 1433,1025.5 1536,849 1536,640 z" id="path3005" inkscape:connector-curvature="0" style="fill:#aaaaaa"/>
  </g>
</svg>
