<?xml version="1.0" encoding="utf-8"?>
<!-- Generator: Adobe Illustrator 15.0.2, SVG Export Plug-In  -->
<!DOCTYPE svg PUBLIC "-//W3C//DTD SVG 1.1//EN" "http://www.w3.org/Graphics/SVG/1.1/DTD/svg11.dtd" [
	<!ENTITY ns_flows "http://ns.adobe.com/Flows/1.0/">
]>
<svg version="1.1"
	 xmlns="http://www.w3.org/2000/svg" xmlns:xlink="http://www.w3.org/1999/xlink" xmlns:a="http://ns.adobe.com/AdobeSVGViewerExtensions/3.0/"
	 x="0px" y="0px" width="46px" height="46px" viewBox="-9.884 -9.885 46 46" enable-background="new -9.884 -9.885 46 46"
	 xml:space="preserve">
<defs>
</defs>
<path fill="#FFFFFF" d="M23.955,13.315c0-0.509-0.048-1.006-0.116-1.497l2.794-1.477c-0.349-1.565-0.968-3.025-1.803-4.338
	l-3.017,0.93C21.212,6.133,20.5,5.42,19.698,4.818l0.93-3.017C19.316,0.968,17.855,0.348,16.291,0l-1.478,2.794
	c-0.49-0.069-0.987-0.117-1.497-0.117s-1.007,0.048-1.497,0.117L10.342,0C8.777,0.348,7.316,0.968,6.005,1.802l0.93,3.017
	C6.133,5.42,5.421,6.133,4.819,6.934l-3.017-0.93C0.968,7.316,0.349,8.776,0,10.342l2.795,1.477
	c-0.069,0.491-0.117,0.988-0.117,1.497c0,0.51,0.048,1.007,0.117,1.497L0,16.289c0.349,1.565,0.968,3.025,1.803,4.338l3.017-0.93
	c0.602,0.801,1.313,1.514,2.115,2.116l-0.93,3.016c1.312,0.836,2.772,1.454,4.337,1.802l1.478-2.793
	c0.49,0.068,0.987,0.116,1.497,0.116s1.007-0.048,1.497-0.116l1.478,2.793c1.564-0.348,3.025-0.966,4.337-1.802l-0.93-3.016
	c0.802-0.603,1.514-1.315,2.115-2.116l3.017,0.93c0.835-1.313,1.454-2.772,1.803-4.338l-2.794-1.477
	C23.907,14.322,23.955,13.825,23.955,13.315z M13.316,21.234c-4.374,0-7.919-3.545-7.919-7.919s3.545-7.919,7.919-7.919
	s7.919,3.545,7.919,7.919S17.69,21.234,13.316,21.234z"/>
</svg>
