<?xml version="1.0" encoding="utf-8"?>
<!-- Generator: Adobe Illustrator 15.0.2, SVG Export Plug-In . SVG Version: 6.00 Build 0)  -->
<!DOCTYPE svg PUBLIC "-//W3C//DTD SVG 1.1//EN" "http://www.w3.org/Graphics/SVG/1.1/DTD/svg11.dtd">
<svg version="1.1" id="Layer_1" xmlns="http://www.w3.org/2000/svg" xmlns:xlink="http://www.w3.org/1999/xlink" x="0px" y="0px"
	 width="149.055px" height="149.06px" viewBox="0 0 149.055 149.06" enable-background="new 0 0 149.055 149.06"
	 xml:space="preserve">
<g>
	<path fill="#3D5A98" d="M140.83,149.06c4.55,0,8.225-3.684,8.225-8.226V8.225c0-4.542-3.675-8.225-8.225-8.225H8.225
		C3.684,0,0,3.684,0,8.225v132.609c0,4.542,3.684,8.226,8.225,8.226H140.83z"/>
	<path fill="#FFFFFF" d="M102.843,149.06V91.337h19.379l2.895-22.495h-22.273v-14.37c0-6.504,1.811-10.951,11.154-10.951
		l11.908-0.004V23.396c-2.055-0.277-9.127-0.888-17.36-0.888c-17.169,0-28.93,10.487-28.93,29.745v16.588H60.192v22.495h19.423
		v57.723H102.843z"/>
</g>
</svg>
