<?xml version="1.0" encoding="utf-8"?>
<!-- Generator: Adobe Illustrator 15.0.2, SVG Export Plug-In . SVG Version: 6.00 Build 0)  -->
<!DOCTYPE svg PUBLIC "-//W3C//DTD SVG 1.1//EN" "http://www.w3.org/Graphics/SVG/1.1/DTD/svg11.dtd">
<svg version="1.1" id="Layer_1" xmlns="http://www.w3.org/2000/svg" xmlns:xlink="http://www.w3.org/1999/xlink" x="0px" y="0px"
	 width="149.055px" height="149.06px" viewBox="0 0 149.055 149.06" enable-background="new 0 0 149.055 149.06"
	 xml:space="preserve">
<g>
	<g>
		<path fill="#007BB5" d="M138.752,0h-127.7C4.955,0,0,4.838,0,10.809v128.223c0,5.966,4.955,10.817,11.052,10.817h127.7
			c6.11,0,11.087-4.851,11.087-10.817V10.809C149.839,4.838,144.862,0,138.752,0z"/>
		<path fill="#FFFFFF" d="M22.201,56.177h22.249v71.51H22.201V56.177z M33.327,20.627c7.108,0,12.887,5.774,12.887,12.892
			c0,7.113-5.779,12.892-12.887,12.892c-7.134,0-12.892-5.779-12.892-12.892C20.436,26.402,26.193,20.627,33.327,20.627"/>
		<path fill="#FFFFFF" d="M58.396,56.177h21.303v9.771h0.296c2.963-5.613,10.216-11.544,21.033-11.544
			c22.501,0,26.659,14.805,26.659,34.068v39.215h-22.223V92.908c0-8.285-0.139-18.958-11.544-18.958
			c-11.567,0-13.332,9.039-13.332,18.366v35.372H58.396V56.177z"/>
	</g>
</g>
</svg>
