<?xml version="1.0" encoding="utf-8"?>
<!-- Generator: Adobe Illustrator 15.0.2, SVG Export Plug-In . SVG Version: 6.00 Build 0)  -->
<!DOCTYPE svg PUBLIC "-//W3C//DTD SVG 1.1//EN" "http://www.w3.org/Graphics/SVG/1.1/DTD/svg11.dtd">
<svg version="1.1" id="Layer_1" xmlns="http://www.w3.org/2000/svg" xmlns:xlink="http://www.w3.org/1999/xlink" x="0px" y="0px"
	 width="45.637px" height="45.638px" viewBox="0 0 45.637 45.638" enable-background="new 0 0 45.637 45.638" xml:space="preserve">
<path fill="#FFFFFF" d="M17.578,21.967v2.61h4.317c-0.175,1.12-1.307,3.282-4.317,3.282c-2.599,0-4.718-2.15-4.718-4.805
	c0-2.652,2.119-4.805,4.718-4.805c1.478,0,2.467,0.631,3.033,1.174l2.064-1.99c-1.324-1.239-3.042-1.988-5.098-1.988
	c-4.207,0-7.609,3.402-7.609,7.609c0,4.208,3.402,7.609,7.609,7.609c4.393,0,7.307-3.087,7.307-7.436c0-0.5-0.056-0.881-0.122-1.262
	H17.578z M36.059,24.142h-3.261v3.262h-2.175v-3.262h-3.261v-2.175h3.261v-3.26h2.175v3.26h3.261V24.142"/>
</svg>
