<?xml version="1.0" encoding="utf-8"?>
<!-- Generator: Adobe Illustrator 15.0.2, SVG Export Plug-In . SVG Version: 6.00 Build 0)  -->
<!DOCTYPE svg PUBLIC "-//W3C//DTD SVG 1.1//EN" "http://www.w3.org/Graphics/SVG/1.1/DTD/svg11.dtd">
<svg version="1.1" id="Layer_1" xmlns="http://www.w3.org/2000/svg" xmlns:xlink="http://www.w3.org/1999/xlink" x="0px" y="0px"
	 width="148.89px" height="128.151px" viewBox="0 0 148.89 128.151" enable-background="new 0 0 148.89 128.151"
	 xml:space="preserve">
<g>
	<path fill="#3CFC97" d="M100.624,0.149c-0.75-0.384-1.366,0-1.366,0.851v103.924l45.503,22.758c2.266,1.135,4.13-0.013,4.13-2.545
		V25.09c0-0.498-0.284-0.952-0.729-1.174L100.624,0.149z"/>
	<path fill="#10E67B" d="M49.629,80.14L98.454,0.809c0.45-0.725,1.428-0.996,2.179-0.625l47.166,23.579
		c0.589,0.292,0.799,1.031,0.45,1.584l-48.987,79.616L49.629,80.14z"/>
	<path fill="#1BCD72" d="M5.497,2.241C2.471,0.734,1.45,1.856,3.227,4.737L49.629,80.14l49.633,24.823l-49.31-80.131
		c-0.209-0.345-0.511-0.62-0.869-0.794L5.497,2.241z"/>
	<path fill="#00B377" d="M49.629,125.168c0,2.531-1.86,3.675-4.117,2.549L2.747,106.334C1.236,105.574,0,103.579,0,101.881V2.572
		c0-1.698,1.236-2.458,2.747-1.703l46.271,23.138c0.375,0.183,0.611,0.572,0.611,0.986V125.168z"/>
</g>
</svg>
