<?xml version="1.0" encoding="UTF-8" standalone="no"?>
<!-- Created with Inkscape (http://www.inkscape.org/) -->
<svg
   xmlns:dc="http://purl.org/dc/elements/1.1/"
   xmlns:cc="http://web.resource.org/cc/"
   xmlns:rdf="http://www.w3.org/1999/02/22-rdf-syntax-ns#"
   xmlns:svg="http://www.w3.org/2000/svg"
   xmlns="http://www.w3.org/2000/svg"
   xmlns:sodipodi="http://inkscape.sourceforge.net/DTD/sodipodi-0.dtd"
   xmlns:inkscape="http://www.inkscape.org/namespaces/inkscape"
   width="100"
   height="100"
   id="svg2"
   sodipodi:version="0.32"
   inkscape:version="0.43"
   version="1.0"
   sodipodi:docbase="/home/tijmen-gentoo/Images/Graphics Tijmen/SVG/Conversie"
   sodipodi:docname="cellphone.svg">
  <defs
     id="defs4" />
  <sodipodi:namedview
     id="base"
     pagecolor="#ffffff"
     bordercolor="#666666"
     borderopacity="1.0"
     inkscape:pageopacity="0.0"
     inkscape:pageshadow="2"
     inkscape:zoom="5.1600631"
     inkscape:cx="38.951817"
     inkscape:cy="46.092984"
     inkscape:document-units="px"
     inkscape:current-layer="layer1"
     showgrid="true"
     inkscape:grid-points="true"
     inkscape:grid-bbox="true"
     inkscape:window-width="1273"
     inkscape:window-height="947"
     inkscape:window-x="0"
     inkscape:window-y="0"
     showguides="true"
     inkscape:guide-bbox="true" />
  <metadata
     id="metadata7">
    <rdf:RDF>
      <cc:Work
         rdf:about="">
        <dc:format>image/svg+xml</dc:format>
        <dc:type
           rdf:resource="http://purl.org/dc/dcmitype/StillImage" />
      </cc:Work>
    </rdf:RDF>
  </metadata>
  <g
     inkscape:label="Layer 1"
     inkscape:groupmode="layer"
     id="layer1">    
    <path
       style="opacity:1;fill:#ffffff;fill-opacity:1;fill-rule:nonzero;stroke:none;stroke-width:4.9000001;stroke-linecap:square;stroke-linejoin:round;stroke-miterlimit:10;stroke-dasharray:none;stroke-dashoffset:0;stroke-opacity:1"
       d="M 61.5,10.5625 C 60.369154,10.792679 59.561837,11.824672 59.5625,13 L 59.5625,23.5625 L 36,23.5625 C 34.656703,23.569469 33.569469,24.656703 33.5625,26 L 33.5625,83 C 33.569469,84.343297 34.656703,85.430531 36,85.4375 L 63,85.4375 C 64.343297,85.430531 65.430531,84.343297 65.4375,83 L 65.4375,13 C 65.430531,11.656703 64.343297,10.569469 63,10.5625 L 62,10.5625 C 61.916721,10.558246 61.833279,10.558246 61.75,10.5625 C 61.72958,10.563042 61.677669,10.563421 61.65625,10.5625 C 61.651013,10.562476 61.630048,10.562199 61.625,10.5625 C 61.614416,10.562255 61.573045,10.562642 61.5625,10.5625 C 61.544393,10.565752 61.51795,10.558846 61.5,10.5625 z M 38.625,27.5625 C 38.663293,27.556535 38.711099,27.566696 38.75,27.5625 C 38.833279,27.558246 38.916721,27.558246 39,27.5625 L 60,27.5625 C 61.343297,27.569469 62.430531,28.656703 62.4375,30 L 62.4375,48 C 62.430531,49.343297 61.343297,50.430531 60,50.4375 L 39,50.4375 C 37.656703,50.430531 36.569469,49.343297 36.5625,48 L 36.5625,30 C 36.561815,28.787064 37.43792,27.747404 38.625,27.5625 z M 36.5625,52.53125 L 43.4375,52.53125 L 43.4375,57 L 36.5625,57 L 36.5625,52.53125 z M 55.5625,52.53125 L 62.4375,52.53125 L 62.4375,57 L 55.5625,57 L 55.5625,52.53125 z M 49.25,55.25 C 49.290717,55.24592 49.33374,55.252094 49.375,55.25 C 49.417591,55.247839 49.456875,55.25 49.5,55.25 C 50.88,55.25 52,56.37 52,57.75 C 52,59.13 50.88,60.25 49.5,60.25 C 48.12,60.25 47,59.13 47,57.75 C 47,56.454902 47.987771,55.37647 49.25,55.25 z M 36.5625,58.53125 L 43.4375,58.53125 L 43.4375,63 L 36.5625,63 L 36.5625,58.53125 z M 55.5625,58.53125 L 62.4375,58.53125 L 62.4375,63 L 55.5625,63 L 55.5625,58.53125 z M 36.5625,64.53125 L 43.4375,64.53125 L 43.4375,69 L 36.5625,69 L 36.5625,64.53125 z M 46.0625,64.53125 L 52.9375,64.53125 L 52.9375,69 L 46.0625,69 L 46.0625,64.53125 z M 55.5625,64.53125 L 62.4375,64.53125 L 62.4375,69 L 55.5625,69 L 55.5625,64.53125 z M 36.5625,70.53125 L 43.4375,70.53125 L 43.4375,75 L 36.5625,75 L 36.5625,70.53125 z M 46.0625,70.53125 L 52.9375,70.53125 L 52.9375,75 L 46.0625,75 L 46.0625,70.53125 z M 55.5625,70.53125 L 62.4375,70.53125 L 62.4375,75 L 55.5625,75 L 55.5625,70.53125 z M 36.5625,76.53125 L 43.4375,76.53125 L 43.4375,81 L 36.5625,81 L 36.5625,76.53125 z M 46.0625,76.53125 L 52.9375,76.53125 L 52.9375,81 L 46.0625,81 L 46.0625,76.53125 z M 55.5625,76.53125 L 62.4375,76.53125 L 62.4375,81 L 55.5625,81 L 55.5625,76.53125 z "
       id="rect7662"
       sodipodi:nodetypes="ccccccccccccssssccsccccccccccccccccccccssssscccccccccccccccccccccccccccccccccccccccccccccccccccccccc" />
  </g>
</svg>
