<?xml version="1.0" encoding="utf-8"?><svg version="1.1" xmlns="http://www.w3.org/2000/svg" xmlns:xlink="http://www.w3.org/1999/xlink" width="128" height="128"><title>Crystal Clear action bookmark</title><filter id="f1"><feGaussianBlur id="fgb1" stdDeviation="4.2510011"/></filter><radialGradient id="rg1" cx="3272.0874" cy="5380.6934" r="435.3177" gradientTransform="matrix(0.1481 0 0 0.1412 -488.748 -362.8818)" gradientUnits="userSpaceOnUse"><stop offset="0" style="stop-color:#ff901f"/><stop offset="1" style="stop-color:#ffb61f"/></radialGradient><radialGradient id="rg2" cx="3844.8518" cy="443.1116" r="366.0851" gradientTransform="matrix(0.1446 0.1263 -1.2282 1.4069 -78.3734 -769.5161)" gradientUnits="userSpaceOnUse"><stop offset="0" style="stop-color:#fff"/><stop offset="1" style="stop-color:#fff;stop-opacity:0"/></radialGradient><g transform="matrix(1.0866668,0,0,1.0866668,96.733244,-323.29698)"><g style="filter:url(#f1)"><polygon style="fill:#999" points="6.826,413.357 -29.222,389.206 -65.046,413.821 -54.485,372.701 -87.696,345.61 -44.824,343.532 -29.822,302.989 -13.179,343.975 28.595,344.86 -4.891,372.435"/></g><path style="fill:#ffcc75;stroke:#ba6100;stroke-width:1.5;stroke-linejoin:round" d="M6.254,410.113l-36.048-24.149l-35.824,24.613l10.56-41.12l-33.211-27.091l42.872-2.077l15.002-40.543l16.643,40.986l41.776,0.885l-33.488,27.575L6.254,410.113z"/><path style="fill:url(#rg1)" d="M4.316,407.421l-34.205-24.852l-33.177,24.811l9.638-38.431l-30.903-25.61l40.161-1.807l13.702-38.342l15.713,39.065l39.605,0.38L-9.13,367.739L4.316,407.421z"/><path style="fill:url(#rg2)" d="M-59.084,391.597l5.656-22.648l-30.808-25.322l40.065-2.025l13.677-38.33l15.805,38.986l22.982,0.255C-27.45,351.397-38.262,356.103-59.084,391.597z"/></g></svg>